<svg id="Layer_1" data-name="Layer 1" xmlns="http://www.w3.org/2000/svg" viewBox="0 0 113.98 175.31"><defs><style>.cls-1{fill:#00b37e;}</style></defs><path class="cls-1" d="M2830.91,1289.55v-80c0-4.95,0-4.95-4.94-5a40.77,40.77,0,0,1-7.09-.19c-1-.18-1.69-1.79-2.52-2.75.89-.74,1.78-2.14,2.67-2.14,20.61-.09,41.27-.8,61.84.23,22.43,1.12,41.84,18.22,47.64,39.91a54.34,54.34,0,0,1-21.52,58.6,53.59,53.59,0,0,1-31.28,9.82c-11.62,0-23.24,0-34.86,0-5,0-5,0-5,4.81q0,28.21,0,56.42c0,1.12.28,2.39-.15,3.32a3.45,3.45,0,0,1-2.41,1.9c-.79,0-1.87-1.17-2.24-2.07s-.12-2.2-.12-3.32v-79.59Zm30.21-36.17h0c0,14.93.13,29.87-.09,44.81-.06,3.89,1.25,5,4.94,4.77,4-.28,8-.06,12-.17a45.12,45.12,0,0,0,24.64-7.78c16.79-11.46,24.41-27.53,21.94-47.51-2.35-19.09-13.33-32.22-31.19-39.63-9.07-3.76-18.59-3-28.06-3.28-3.37-.09-4.23,1.17-4.2,4.35C2861.19,1223.75,2861.12,1238.56,2861.12,1253.38Zm-25.24.29h0c0,15.08.07,30.16-.06,45.23,0,3.12,1,4.22,4.11,4.06a95.79,95.79,0,0,1,11.24,0c3.56.24,4.75-.93,4.72-4.59-.16-21.68-.08-43.36-.09-65,0-8.35-.09-16.7,0-25,.05-2.77-.94-3.79-3.69-3.68a112.59,112.59,0,0,1-11.62,0c-3.58-.25-4.76,1-4.72,4.61C2836,1224,2835.88,1238.85,2835.88,1253.67Z" transform="translate(-2816.36 -1199.22)"/></svg>